<svg id="svg" version="1.1" xmlns="http://www.w3.org/2000/svg" xmlns:xlink="http://www.w3.org/1999/xlink" width="400" height="398.8888888888889" viewBox="0, 0, 400,398.8888888888889"><g id="svgg"><path id="path0" d="M109.838 78.851 C 109.694 79.085,109.503 229.000,109.640 234.444 C 109.658 235.135,111.111 233.493,111.111 232.783 C 111.111 232.525,111.533 231.335,112.050 230.139 C 113.532 226.701,113.559 226.638,114.826 223.519 C 115.960 220.727,116.529 219.380,117.875 216.296 C 118.187 215.583,118.812 214.083,119.265 212.963 C 120.235 210.565,120.941 208.886,121.837 206.852 C 122.195 206.037,123.004 204.120,123.633 202.593 C 125.387 198.335,130.678 185.772,131.823 183.148 C 132.178 182.333,132.938 180.500,133.511 179.074 C 134.084 177.648,134.848 175.815,135.208 175.000 C 136.508 172.058,137.299 170.161,137.757 168.889 C 138.238 167.556,138.956 165.876,140.292 162.963 C 140.712 162.046,141.739 159.594,142.574 157.514 C 143.409 155.434,144.602 152.601,145.225 151.218 C 145.848 149.835,146.948 147.204,147.668 145.370 C 148.838 142.393,149.655 140.484,151.311 136.852 C 151.590 136.241,152.172 134.824,152.605 133.704 C 153.401 131.642,153.761 130.787,155.100 127.778 C 155.508 126.861,156.380 124.778,157.037 123.148 C 158.402 119.761,159.461 117.317,160.217 115.803 C 160.505 115.227,160.741 114.607,160.741 114.425 C 160.741 114.244,161.167 113.133,161.688 111.955 C 162.209 110.778,162.773 109.481,162.941 109.074 C 163.110 108.667,163.850 106.944,164.587 105.247 C 165.323 103.549,165.926 101.924,165.926 101.635 C 165.926 101.347,166.093 101.111,166.296 101.111 C 166.500 101.111,166.667 100.890,166.667 100.621 C 166.667 100.351,167.260 98.726,167.986 97.010 C 168.711 95.293,169.444 93.556,169.614 93.148 C 169.783 92.741,170.333 91.491,170.836 90.370 C 171.338 89.250,171.960 87.750,172.219 87.037 C 172.713 85.676,173.574 83.672,174.815 80.994 C 175.222 80.115,175.556 79.198,175.556 78.957 C 175.556 78.418,110.171 78.312,109.838 78.851 M222.222 78.876 C 222.222 79.073,222.461 79.781,222.753 80.450 C 223.044 81.119,223.896 83.167,224.646 85.000 C 225.395 86.833,226.250 88.833,226.544 89.444 C 226.839 90.056,227.508 91.639,228.030 92.963 C 228.552 94.287,229.226 95.954,229.527 96.667 C 229.829 97.380,230.214 98.296,230.383 98.704 C 230.552 99.111,231.368 100.986,232.197 102.871 C 233.026 104.755,233.704 106.373,233.704 106.465 C 233.704 106.632,236.608 113.597,237.571 115.741 C 237.846 116.352,238.238 117.269,238.443 117.778 C 238.647 118.287,239.165 119.494,239.593 120.459 C 240.020 121.424,240.371 122.341,240.373 122.496 C 240.374 122.651,240.639 123.278,240.962 123.889 C 241.285 124.500,242.047 126.250,242.656 127.778 C 243.266 129.306,244.229 131.639,244.797 132.963 C 245.365 134.287,246.697 137.454,247.756 140.000 C 251.672 149.415,252.007 150.192,252.297 150.537 C 252.459 150.731,252.593 151.113,252.593 151.386 C 252.593 151.659,253.096 152.959,253.711 154.274 C 254.325 155.589,255.592 158.540,256.526 160.833 C 257.459 163.125,258.724 166.167,259.337 167.593 C 259.950 169.019,260.683 170.727,260.966 171.389 C 261.250 172.051,261.718 173.134,262.008 173.796 C 262.298 174.458,262.889 175.917,263.321 177.037 C 263.754 178.157,264.829 180.741,265.710 182.778 C 266.591 184.815,267.926 187.981,268.677 189.815 C 270.059 193.191,270.447 194.109,271.340 196.111 C 271.612 196.722,272.521 198.889,273.359 200.926 C 274.197 202.963,275.224 205.380,275.640 206.296 C 276.056 207.213,276.522 208.296,276.676 208.704 C 276.829 209.111,277.401 210.528,277.948 211.852 C 278.494 213.176,279.078 214.593,279.246 215.000 C 279.414 215.407,279.965 216.657,280.469 217.778 C 280.973 218.898,281.491 220.119,281.618 220.492 C 281.746 220.864,282.868 223.614,284.112 226.603 C 285.355 229.592,286.629 232.657,286.942 233.416 C 287.255 234.174,287.654 234.706,287.829 234.598 C 288.361 234.269,288.236 79.495,287.704 78.963 C 287.136 78.396,222.222 78.310,222.222 78.876 M298.116 79.355 C 290.689 82.984,293.227 94.074,301.484 94.074 C 308.022 94.074,311.509 86.275,307.135 81.434 C 304.488 78.503,301.343 77.779,298.116 79.355 M304.114 80.896 C 305.685 81.659,306.526 82.798,307.098 84.935 C 308.704 90.940,301.137 95.168,297.071 90.538 C 292.511 85.344,297.948 77.901,304.114 80.896 M299.052 82.378 C 298.275 82.946,298.166 89.749,298.922 90.537 C 299.499 91.139,300.173 90.069,300.057 88.733 C 299.867 86.519,302.395 86.897,302.660 89.121 C 302.805 90.342,303.939 91.177,304.415 90.413 C 304.740 89.892,304.438 88.362,303.777 87.181 C 303.509 86.701,303.596 86.279,304.108 85.580 C 305.865 83.179,301.627 80.495,299.052 82.378 M302.554 83.842 C 303.414 84.878,301.588 86.493,300.391 85.754 C 299.959 85.486,299.858 83.969,300.247 83.580 C 300.677 83.150,302.115 83.313,302.554 83.842 M198.704 136.954 C 198.500 137.101,198.139 137.722,197.901 138.333 C 197.165 140.226,194.430 146.765,193.641 148.519 C 192.829 150.324,191.954 152.342,191.474 153.519 C 191.308 153.926,190.766 155.176,190.270 156.296 C 189.774 157.417,189.020 159.167,188.594 160.185 C 188.168 161.204,187.144 163.579,186.317 165.463 C 185.491 167.348,184.815 168.952,184.815 169.028 C 184.815 169.103,184.455 169.978,184.016 170.971 C 183.576 171.965,183.285 172.794,183.368 172.813 C 183.451 172.833,183.326 173.083,183.090 173.369 C 182.854 173.655,181.913 175.722,180.999 177.963 C 180.086 180.204,178.382 184.204,177.215 186.852 C 175.061 191.737,174.545 192.954,173.731 195.070 C 173.481 195.719,172.956 196.879,172.564 197.648 C 172.172 198.417,171.852 199.194,171.852 199.376 C 171.852 199.558,171.435 200.538,170.925 201.553 C 170.415 202.569,170.091 203.551,170.206 203.737 C 170.325 203.931,176.866 204.074,185.587 204.074 L 200.759 204.074 201.166 205.093 C 201.390 205.653,201.907 206.944,202.314 207.963 C 202.721 208.981,203.341 210.565,203.693 211.481 C 204.044 212.398,204.469 213.481,204.637 213.889 C 206.356 218.049,207.293 220.397,208.554 223.704 C 209.369 225.843,210.290 228.176,210.599 228.889 C 211.513 230.997,211.751 231.581,212.407 233.332 C 212.750 234.248,213.223 235.121,213.460 235.271 C 214.124 235.694,240.741 235.620,240.741 235.195 C 240.741 234.997,240.345 233.956,239.862 232.880 C 239.378 231.805,238.532 229.843,237.982 228.519 C 237.431 227.194,236.761 225.611,236.492 225.000 C 235.623 223.022,235.234 222.104,233.514 217.963 C 232.583 215.722,231.669 213.556,231.481 213.148 C 231.294 212.741,230.459 210.741,229.625 208.704 C 228.790 206.667,227.863 204.551,227.563 204.002 C 227.264 203.453,226.602 201.896,226.093 200.543 C 225.584 199.190,224.856 197.473,224.475 196.727 C 224.095 195.981,223.781 195.287,223.778 195.185 C 223.771 194.951,223.059 193.213,222.185 191.296 C 221.813 190.481,220.653 187.731,219.607 185.185 C 218.560 182.639,217.396 179.889,217.019 179.074 C 216.643 178.259,215.648 175.926,214.809 173.889 C 213.240 170.081,212.640 168.678,211.479 166.111 C 211.111 165.296,210.690 164.213,210.545 163.704 C 210.399 163.194,210.147 162.611,209.985 162.406 C 209.824 162.202,209.336 161.119,208.903 159.999 C 208.469 158.879,207.889 157.463,207.614 156.852 C 207.339 156.241,206.165 153.491,205.005 150.741 C 203.846 147.991,202.186 144.074,201.318 142.037 C 200.449 140.000,199.589 137.963,199.406 137.509 C 199.224 137.056,198.907 136.806,198.704 136.954 M170.457 264.537 C 170.222 264.827,170.113 268.452,170.163 274.259 C 170.257 285.166,170.313 284.855,168.565 283.058 C 164.013 278.381,155.637 281.354,152.137 288.889 C 148.038 297.712,149.364 313.753,154.678 319.634 C 158.923 324.334,166.001 324.597,169.521 320.186 C 170.917 318.436,171.285 318.546,171.692 320.833 L 172.037 322.778 176.225 322.801 C 178.528 322.814,180.494 322.692,180.594 322.530 C 180.854 322.110,180.768 265.979,180.507 264.937 C 180.251 263.918,171.247 263.560,170.457 264.537 M223.458 264.353 C 223.138 264.561,223.001 272.113,222.924 293.706 L 222.821 322.778 226.873 322.812 C 231.598 322.851,231.852 322.725,231.852 320.325 C 231.852 318.085,232.138 318.072,233.907 320.231 C 238.384 325.696,247.309 323.660,250.751 316.390 C 253.934 309.664,254.679 299.265,252.593 290.669 C 250.377 281.538,241.060 277.794,235.305 283.724 C 233.446 285.640,233.543 286.092,233.333 274.507 L 233.148 264.259 228.519 264.166 C 225.972 264.115,223.695 264.199,223.458 264.353 M124.094 265.857 C 123.606 266.020,123.102 267.713,122.200 272.222 C 121.368 276.381,121.328 276.556,121.025 277.407 C 120.916 277.713,120.628 279.130,120.385 280.556 C 120.142 281.981,119.843 283.398,119.722 283.704 C 119.601 284.009,119.456 284.593,119.399 285.000 C 119.310 285.639,118.179 290.933,117.659 293.148 C 117.563 293.556,117.199 295.306,116.850 297.037 C 116.502 298.769,116.083 300.519,115.919 300.926 C 115.755 301.333,115.421 302.750,115.175 304.074 C 114.566 307.361,113.128 313.841,111.985 318.451 C 110.838 323.081,110.541 322.770,116.144 322.813 C 121.871 322.857,121.407 323.492,123.212 313.148 C 123.975 308.770,123.629 309.006,129.235 309.043 C 134.820 309.079,134.657 308.982,135.216 312.597 C 135.452 314.122,135.775 315.704,135.935 316.111 C 136.094 316.519,136.422 318.060,136.664 319.536 C 137.209 322.859,137.034 322.759,142.407 322.822 C 146.784 322.874,148.156 322.571,147.445 321.710 C 147.257 321.483,146.993 320.630,146.858 319.815 C 146.613 318.337,145.707 313.781,144.612 308.519 C 144.295 306.991,143.637 303.657,143.151 301.111 C 142.664 298.565,141.999 295.148,141.672 293.519 C 141.345 291.889,140.932 289.806,140.754 288.889 C 140.576 287.972,140.070 285.556,139.629 283.519 C 139.188 281.481,138.780 279.481,138.722 279.074 C 138.664 278.667,138.530 278.083,138.425 277.778 C 138.201 277.128,136.872 270.019,136.854 269.378 C 136.848 269.138,136.720 268.818,136.569 268.668 C 136.419 268.518,136.296 267.933,136.296 267.368 C 136.296 266.802,136.123 266.233,135.912 266.103 C 135.526 265.864,124.746 265.640,124.094 265.857 M130.165 278.981 C 130.295 280.051,130.563 282.093,130.762 283.519 C 130.961 284.944,131.298 287.361,131.512 288.889 C 131.725 290.417,132.060 292.333,132.255 293.148 C 132.451 293.963,132.673 295.130,132.750 295.741 C 132.827 296.352,133.012 297.810,133.162 298.981 L 133.435 301.111 129.310 301.111 C 124.675 301.111,124.855 301.255,125.607 298.148 C 125.829 297.231,126.069 296.148,126.140 295.741 C 126.675 292.670,127.866 285.973,127.984 285.370 C 128.064 284.963,128.302 283.296,128.512 281.667 C 129.191 276.408,129.746 275.508,130.165 278.981 M199.298 281.123 C 183.331 283.443,181.255 316.161,196.667 322.606 C 199.716 323.881,206.629 323.122,209.109 321.240 C 209.739 320.762,210.379 320.370,210.531 320.370 C 211.800 320.370,216.296 312.691,216.296 310.525 C 216.296 310.114,216.498 309.576,216.746 309.328 C 217.352 308.722,217.399 296.040,216.799 294.777 C 216.568 294.289,216.181 293.139,215.939 292.222 C 214.473 286.650,210.638 282.571,205.687 281.317 C 203.244 280.698,202.401 280.673,199.298 281.123 M271.315 281.135 C 268.204 281.655,262.222 285.614,262.222 287.152 C 262.222 287.332,261.900 287.930,261.507 288.483 C 261.114 289.035,260.515 290.228,260.176 291.132 C 259.838 292.037,259.418 293.111,259.244 293.519 C 257.731 297.058,257.757 310.115,259.280 311.648 C 259.472 311.842,259.633 312.258,259.638 312.574 C 259.685 315.972,265.151 321.153,270.227 322.612 C 274.001 323.697,285.482 322.433,286.083 320.867 C 286.267 320.386,285.046 314.552,284.685 314.191 C 284.595 314.102,283.262 314.288,281.721 314.607 C 276.103 315.767,273.265 315.255,270.707 312.618 C 269.048 310.908,268.678 310.048,268.264 306.944 L 268.079 305.556 277.669 305.556 C 289.037 305.556,288.148 305.970,288.148 300.674 C 288.148 286.734,281.811 279.379,271.315 281.135 M274.835 288.714 C 276.454 289.551,277.622 291.693,278.142 294.778 C 278.718 298.194,278.886 298.088,273.001 298.018 L 268.333 297.963 268.353 297.037 C 268.438 293.085,269.905 289.968,272.232 288.797 C 273.777 288.019,273.507 288.028,274.835 288.714 M203.190 289.224 C 208.443 292.427,207.757 314.061,202.360 315.415 C 195.636 317.103,194.181 291.579,200.848 288.895 C 201.966 288.445,201.896 288.435,203.190 289.224 M167.437 290.262 C 169.717 291.608,170.281 294.583,170.118 304.384 C 170.021 310.194,169.732 311.738,168.432 313.365 C 166.122 316.259,162.081 314.358,161.130 309.929 C 160.255 305.852,160.185 305.297,160.185 302.407 C 160.185 293.072,163.316 287.827,167.437 290.262 M240.939 291.250 C 243.543 294.220,244.370 304.913,242.432 310.550 C 240.749 315.446,236.477 316.192,234.390 311.955 C 233.222 309.583,232.872 296.766,233.891 293.697 C 235.227 289.675,238.547 288.522,240.939 291.250 " stroke="none" fill="#faf9fc" fill-rule="evenodd"></path><path id="path1" d="M44.259 12.991 C 26.480 15.981,12.163 30.414,9.265 48.271 C 8.753 51.425,8.753 350.427,9.265 353.581 C 12.002 370.444,24.201 383.686,41.206 388.254 L 44.259 389.074 200.370 389.074 L 356.481 389.074 359.535 388.254 C 376.590 383.673,388.921 370.212,391.497 353.362 C 391.743 351.750,391.832 299.588,391.761 199.259 L 391.652 47.593 390.796 44.630 C 385.852 27.526,372.902 15.684,356.173 12.969 C 353.342 12.509,46.994 12.531,44.259 12.991 M175.556 78.957 C 175.556 79.198,175.222 80.115,174.815 80.994 C 173.574 83.672,172.713 85.676,172.219 87.037 C 171.960 87.750,171.338 89.250,170.836 90.370 C 170.333 91.491,169.783 92.741,169.614 93.148 C 169.444 93.556,168.711 95.293,167.986 97.010 C 167.260 98.726,166.667 100.351,166.667 100.621 C 166.667 100.890,166.500 101.111,166.296 101.111 C 166.093 101.111,165.926 101.347,165.926 101.635 C 165.926 101.924,165.323 103.549,164.587 105.247 C 163.850 106.944,163.110 108.667,162.941 109.074 C 162.773 109.481,162.209 110.778,161.688 111.955 C 161.167 113.133,160.741 114.244,160.741 114.425 C 160.741 114.607,160.505 115.227,160.217 115.803 C 159.461 117.317,158.402 119.761,157.037 123.148 C 156.380 124.778,155.508 126.861,155.100 127.778 C 153.761 130.787,153.401 131.642,152.605 133.704 C 152.172 134.824,151.590 136.241,151.311 136.852 C 149.655 140.484,148.838 142.393,147.668 145.370 C 146.948 147.204,145.848 149.835,145.225 151.218 C 144.602 152.601,143.409 155.434,142.574 157.514 C 141.739 159.594,140.712 162.046,140.292 162.963 C 138.956 165.876,138.238 167.556,137.757 168.889 C 137.299 170.161,136.508 172.058,135.208 175.000 C 134.848 175.815,134.084 177.648,133.511 179.074 C 132.938 180.500,132.178 182.333,131.823 183.148 C 130.678 185.772,125.387 198.335,123.633 202.593 C 123.004 204.120,122.195 206.037,121.837 206.852 C 120.941 208.886,120.235 210.565,119.265 212.963 C 118.812 214.083,118.187 215.583,117.875 216.296 C 116.529 219.380,115.960 220.727,114.826 223.519 C 113.559 226.638,113.532 226.701,112.050 230.139 C 111.533 231.335,111.111 232.525,111.111 232.783 C 111.111 233.493,109.658 235.135,109.640 234.444 C 109.503 229.000,109.694 79.085,109.838 78.851 C 110.171 78.312,175.556 78.418,175.556 78.957 M287.704 78.963 C 288.236 79.495,288.361 234.269,287.829 234.598 C 287.654 234.706,287.255 234.174,286.942 233.416 C 286.629 232.657,285.355 229.592,284.112 226.603 C 282.868 223.614,281.746 220.864,281.618 220.492 C 281.491 220.119,280.973 218.898,280.469 217.778 C 279.965 216.657,279.414 215.407,279.246 215.000 C 279.078 214.593,278.494 213.176,277.948 211.852 C 277.401 210.528,276.829 209.111,276.676 208.704 C 276.522 208.296,276.056 207.213,275.640 206.296 C 275.224 205.380,274.197 202.963,273.359 200.926 C 272.521 198.889,271.612 196.722,271.340 196.111 C 270.447 194.109,270.059 193.191,268.677 189.815 C 267.926 187.981,266.591 184.815,265.710 182.778 C 264.829 180.741,263.754 178.157,263.321 177.037 C 262.889 175.917,262.298 174.458,262.008 173.796 C 261.718 173.134,261.250 172.051,260.966 171.389 C 260.683 170.727,259.950 169.019,259.337 167.593 C 258.724 166.167,257.459 163.125,256.526 160.833 C 255.592 158.540,254.325 155.589,253.711 154.274 C 253.096 152.959,252.593 151.659,252.593 151.386 C 252.593 151.113,252.459 150.731,252.297 150.537 C 252.007 150.192,251.672 149.415,247.756 140.000 C 246.697 137.454,245.365 134.287,244.797 132.963 C 244.229 131.639,243.266 129.306,242.656 127.778 C 242.047 126.250,241.285 124.500,240.962 123.889 C 240.639 123.278,240.374 122.651,240.373 122.496 C 240.371 122.341,240.020 121.424,239.593 120.459 C 239.165 119.494,238.647 118.287,238.443 117.778 C 238.238 117.269,237.846 116.352,237.571 115.741 C 236.608 113.597,233.704 106.632,233.704 106.465 C 233.704 106.373,233.026 104.755,232.197 102.871 C 231.368 100.986,230.552 99.111,230.383 98.704 C 230.214 98.296,229.829 97.380,229.527 96.667 C 229.226 95.954,228.552 94.287,228.030 92.963 C 227.508 91.639,226.839 90.056,226.544 89.444 C 226.250 88.833,225.395 86.833,224.646 85.000 C 223.896 83.167,223.044 81.119,222.753 80.450 C 222.461 79.781,222.222 79.073,222.222 78.876 C 222.222 78.310,287.136 78.396,287.704 78.963 M304.392 79.232 C 308.554 81.356,310.194 85.865,308.241 89.815 C 305.214 95.935,296.151 95.267,294.080 88.771 C 292.059 82.429,298.670 76.313,304.392 79.232 M298.739 80.819 C 295.030 82.992,294.281 87.360,297.071 90.538 C 300.089 93.975,305.731 92.652,307.067 88.194 C 308.603 83.068,303.146 78.237,298.739 80.819 M303.305 82.393 C 304.684 83.106,305.000 84.361,304.108 85.580 C 303.596 86.279,303.509 86.701,303.777 87.181 C 304.438 88.362,304.740 89.892,304.415 90.413 C 303.939 91.177,302.805 90.342,302.660 89.121 C 302.395 86.897,299.867 86.519,300.057 88.733 C 300.173 90.069,299.499 91.139,298.922 90.537 C 298.166 89.749,298.275 82.946,299.052 82.378 C 299.981 81.698,301.976 81.705,303.305 82.393 M300.247 83.580 C 299.858 83.969,299.959 85.486,300.391 85.754 C 301.588 86.493,303.414 84.878,302.554 83.842 C 302.115 83.313,300.677 83.150,300.247 83.580 M201.318 142.037 C 202.186 144.074,203.846 147.991,205.005 150.741 C 206.165 153.491,207.339 156.241,207.614 156.852 C 207.889 157.463,208.469 158.879,208.903 159.999 C 209.336 161.119,209.824 162.202,209.985 162.406 C 210.147 162.611,210.399 163.194,210.545 163.704 C 210.690 164.213,211.111 165.296,211.479 166.111 C 212.640 168.678,213.240 170.081,214.809 173.889 C 215.648 175.926,216.643 178.259,217.019 179.074 C 217.396 179.889,218.560 182.639,219.607 185.185 C 220.653 187.731,221.813 190.481,222.185 191.296 C 223.059 193.213,223.771 194.951,223.778 195.185 C 223.781 195.287,224.095 195.981,224.475 196.727 C 224.856 197.473,225.584 199.190,226.093 200.543 C 226.602 201.896,227.264 203.453,227.563 204.002 C 227.863 204.551,228.790 206.667,229.625 208.704 C 230.459 210.741,231.294 212.741,231.481 213.148 C 231.669 213.556,232.583 215.722,233.514 217.963 C 235.234 222.104,235.623 223.022,236.492 225.000 C 236.761 225.611,237.431 227.194,237.982 228.519 C 238.532 229.843,239.378 231.805,239.862 232.880 C 240.345 233.956,240.741 234.997,240.741 235.195 C 240.741 235.620,214.124 235.694,213.460 235.271 C 213.223 235.121,212.750 234.248,212.407 233.332 C 211.751 231.581,211.513 230.997,210.599 228.889 C 210.290 228.176,209.369 225.843,208.554 223.704 C 207.293 220.397,206.356 218.049,204.637 213.889 C 204.469 213.481,204.044 212.398,203.693 211.481 C 203.341 210.565,202.721 208.981,202.314 207.963 C 201.907 206.944,201.390 205.653,201.166 205.093 L 200.759 204.074 185.587 204.074 C 176.866 204.074,170.325 203.931,170.206 203.737 C 170.091 203.551,170.415 202.569,170.925 201.553 C 171.435 200.538,171.852 199.558,171.852 199.376 C 171.852 199.194,172.172 198.417,172.564 197.648 C 172.956 196.879,173.481 195.719,173.731 195.070 C 174.545 192.954,175.061 191.737,177.215 186.852 C 178.382 184.204,180.086 180.204,180.999 177.963 C 181.913 175.722,182.854 173.655,183.090 173.369 C 183.326 173.083,183.451 172.833,183.368 172.813 C 183.285 172.794,183.576 171.965,184.016 170.971 C 184.455 169.978,184.815 169.103,184.815 169.028 C 184.815 168.952,185.491 167.348,186.317 165.463 C 187.144 163.579,188.168 161.204,188.594 160.185 C 189.020 159.167,189.774 157.417,190.270 156.296 C 190.766 155.176,191.308 153.926,191.474 153.519 C 191.954 152.342,192.829 150.324,193.641 148.519 C 194.430 146.765,197.165 140.226,197.901 138.333 C 198.493 136.812,199.011 136.529,199.406 137.509 C 199.589 137.963,200.449 140.000,201.318 142.037 M180.507 264.937 C 180.768 265.979,180.854 322.110,180.594 322.530 C 180.494 322.692,178.528 322.814,176.225 322.801 L 172.037 322.778 171.692 320.833 C 171.285 318.546,170.917 318.436,169.521 320.186 C 166.001 324.597,158.923 324.334,154.678 319.634 C 149.364 313.753,148.038 297.712,152.137 288.889 C 155.637 281.354,164.013 278.381,168.565 283.058 C 170.313 284.855,170.257 285.166,170.163 274.259 C 170.113 268.452,170.222 264.827,170.457 264.537 C 171.247 263.560,180.251 263.918,180.507 264.937 M233.333 274.507 C 233.543 286.092,233.446 285.640,235.305 283.724 C 238.322 280.616,242.889 279.950,246.667 282.068 C 254.079 286.224,256.278 304.712,250.751 316.390 C 247.309 323.660,238.384 325.696,233.907 320.231 C 232.138 318.072,231.852 318.085,231.852 320.325 C 231.852 322.725,231.598 322.851,226.873 322.812 L 222.821 322.778 222.924 293.706 C 223.001 272.113,223.138 264.561,223.458 264.353 C 223.695 264.199,225.972 264.115,228.519 264.166 L 233.148 264.259 233.333 274.507 M135.912 266.103 C 136.123 266.233,136.296 266.802,136.296 267.368 C 136.296 267.933,136.419 268.518,136.569 268.668 C 136.720 268.818,136.848 269.138,136.854 269.378 C 136.872 270.019,138.201 277.128,138.425 277.778 C 138.530 278.083,138.664 278.667,138.722 279.074 C 138.780 279.481,139.188 281.481,139.629 283.519 C 140.070 285.556,140.576 287.972,140.754 288.889 C 140.932 289.806,141.345 291.889,141.672 293.519 C 141.999 295.148,142.664 298.565,143.151 301.111 C 143.637 303.657,144.295 306.991,144.612 308.519 C 145.707 313.781,146.613 318.337,146.858 319.815 C 146.993 320.630,147.257 321.483,147.445 321.710 C 148.156 322.571,146.784 322.874,142.407 322.822 C 137.034 322.759,137.209 322.859,136.664 319.536 C 136.422 318.060,136.094 316.519,135.935 316.111 C 135.775 315.704,135.452 314.122,135.216 312.597 C 134.657 308.982,134.820 309.079,129.235 309.043 C 123.629 309.006,123.975 308.770,123.212 313.148 C 121.407 323.492,121.871 322.857,116.144 322.813 C 110.541 322.770,110.838 323.081,111.985 318.451 C 113.128 313.841,114.566 307.361,115.175 304.074 C 115.421 302.750,115.755 301.333,115.919 300.926 C 116.083 300.519,116.502 298.769,116.850 297.037 C 117.199 295.306,117.563 293.556,117.659 293.148 C 118.179 290.933,119.310 285.639,119.399 285.000 C 119.456 284.593,119.601 284.009,119.722 283.704 C 119.843 283.398,120.142 281.981,120.385 280.556 C 120.628 279.130,120.916 277.713,121.025 277.407 C 121.328 276.556,121.368 276.381,122.200 272.222 C 123.102 267.713,123.606 266.020,124.094 265.857 C 124.746 265.640,135.526 265.864,135.912 266.103 M129.084 277.870 C 128.980 278.329,128.723 280.037,128.512 281.667 C 128.302 283.296,128.064 284.963,127.984 285.370 C 127.866 285.973,126.675 292.670,126.140 295.741 C 126.069 296.148,125.829 297.231,125.607 298.148 C 124.855 301.255,124.675 301.111,129.310 301.111 L 133.435 301.111 133.162 298.981 C 133.012 297.810,132.827 296.352,132.750 295.741 C 132.673 295.130,132.451 293.963,132.255 293.148 C 132.060 292.333,131.725 290.417,131.512 288.889 C 131.298 287.361,130.961 284.944,130.762 283.519 C 130.563 282.093,130.295 280.051,130.165 278.981 C 129.921 276.958,129.410 276.434,129.084 277.870 M205.687 281.317 C 210.638 282.571,214.473 286.650,215.939 292.222 C 216.181 293.139,216.568 294.289,216.799 294.777 C 217.399 296.040,217.352 308.722,216.746 309.328 C 216.498 309.576,216.296 310.114,216.296 310.525 C 216.296 312.691,211.800 320.370,210.531 320.370 C 210.379 320.370,209.739 320.762,209.109 321.240 C 206.629 323.122,199.716 323.881,196.667 322.606 C 181.255 316.161,183.331 283.443,199.298 281.123 C 202.401 280.673,203.244 280.698,205.687 281.317 M277.862 281.235 C 284.249 282.921,288.148 290.288,288.148 300.674 C 288.148 305.970,289.037 305.556,277.669 305.556 L 268.079 305.556 268.264 306.944 C 269.191 313.895,273.443 316.317,281.721 314.607 C 283.262 314.288,284.595 314.102,284.685 314.191 C 285.046 314.552,286.267 320.386,286.083 320.867 C 285.482 322.433,274.001 323.697,270.227 322.612 C 265.151 321.153,259.685 315.972,259.638 312.574 C 259.633 312.258,259.472 311.842,259.280 311.648 C 257.757 310.115,257.731 297.058,259.244 293.519 C 259.418 293.111,259.838 292.037,260.176 291.132 C 260.515 290.228,261.114 289.035,261.507 288.483 C 261.900 287.930,262.222 287.332,262.222 287.152 C 262.222 286.516,266.137 283.088,267.796 282.271 C 270.671 280.855,274.808 280.430,277.862 281.235 M272.232 288.797 C 269.905 289.968,268.438 293.085,268.353 297.037 L 268.333 297.963 273.001 298.018 C 278.886 298.088,278.718 298.194,278.142 294.778 C 277.622 291.693,276.454 289.551,274.835 288.714 C 273.507 288.028,273.777 288.019,272.232 288.797 M200.848 288.895 C 195.132 291.196,195.000 312.146,200.683 315.158 C 206.990 318.502,209.451 293.042,203.190 289.224 C 201.896 288.435,201.966 288.445,200.848 288.895 M162.996 291.032 C 160.731 293.413,159.409 301.520,160.447 306.667 C 161.421 311.497,161.580 311.924,162.941 313.355 C 168.015 318.689,171.321 310.556,169.985 296.028 C 169.454 290.256,166.049 287.822,162.996 291.032 M235.822 290.719 C 231.898 294.165,232.324 312.205,236.379 314.302 C 240.644 316.508,243.445 311.562,243.407 301.896 C 243.369 292.366,239.851 287.182,235.822 290.719 " stroke="none" fill="#7c34fc" fill-rule="evenodd"></path></g></svg>